<svg width="567" height="315" viewBox="0 0 567 315" fill="none" xmlns="http://www.w3.org/2000/svg">
<path d="M25.2198 313.586C55.8868 313.586 516.421 313.701 516.673 312.899L516.719 312.807C516.719 312.807 516.765 312.716 516.765 312.67C516.926 312.28 605.438 276.671 547.111 197.065C516.513 155.337 571.098 91.4513 506.114 35.0811C404.266 -53.2321 307.077 55.544 265.897 35.0811C231.258 17.8722 175.617 -6.76111 119.149 15.3287C103.632 21.4011 70.0267 51.8776 97.9393 103.092C111.896 128.688 50.0105 131.667 27.3774 158.866C-21.9515 218.124 6.85626 313.586 25.2198 313.586Z" fill="#EBF3FA"/>
<g opacity="0.5">
<g opacity="0.5">
<path d="M197.11 129.493C197.11 129.493 203.032 82.7244 186.482 49.8189C184.279 45.4422 177.783 46.2671 176.704 51.0334C176.681 51.1021 176.658 51.1938 176.658 51.2854C174.913 59.466 192.473 100.14 197.11 129.493Z" fill="#AEC3FF"/>
</g>
<g opacity="0.5">
<path d="M196.68 143.199C196.68 143.199 187.636 80.6648 154.237 45.6741C152.194 43.543 148.774 43.291 146.57 45.2387C145.124 46.499 144.068 48.7905 144.298 52.8235C144.963 63.5934 180.818 108.231 196.68 143.199Z" fill="#AEC3FF"/>
</g>
</g>
<g opacity="0.4">
<path d="M495.981 159.808H476.171C474.427 159.808 473.003 158.387 473.003 156.646V73.3966C473.003 71.6551 474.427 70.2344 476.171 70.2344H495.981C497.725 70.2344 499.148 71.6551 499.148 73.3966V156.669C499.125 158.41 497.725 159.808 495.981 159.808Z" fill="#8C9DF4"/>
<path d="M479.93 140.491C479.93 137.123 482.661 134.373 486.059 134.373C489.433 134.373 492.188 137.1 492.188 140.491C492.188 143.86 489.456 146.61 486.059 146.61C482.684 146.61 479.93 143.883 479.93 140.491Z" fill="#505ABA"/>
<path d="M486.049 147.297C489.79 147.297 492.82 144.272 492.82 140.537C492.82 136.802 489.79 133.777 486.049 133.777C482.307 133.777 479.277 136.802 479.277 140.537C479.277 144.249 482.307 147.297 486.049 147.297ZM486.049 135.061C489.079 135.061 491.535 137.512 491.535 140.537C491.535 143.562 489.079 146.014 486.049 146.014C483.019 146.014 480.563 143.562 480.563 140.537C480.563 137.512 483.042 135.061 486.049 135.061Z" fill="white"/>
<path d="M492.532 124.685H479.563C478.92 124.685 478.393 124.158 478.393 123.517V75.5105C478.393 74.8688 478.92 74.3418 479.563 74.3418H492.532C493.175 74.3418 493.703 74.8688 493.703 75.5105V123.517C493.703 124.181 493.175 124.685 492.532 124.685Z" fill="#AEC3FF"/>
<path d="M490.996 78.1948H481.447C480.942 78.1948 480.529 77.7823 480.529 77.2782V77.1178C480.529 76.6136 480.942 76.2012 481.447 76.2012H490.996C491.501 76.2012 491.914 76.6136 491.914 77.1178V77.2782C491.914 77.7823 491.501 78.1948 490.996 78.1948Z" fill="#F99746"/>
<path d="M484.109 108.334V118.715C484.109 118.99 483.88 119.219 483.604 119.219C483.329 119.219 483.099 118.99 483.099 118.715V108.334C483.099 108.059 483.329 107.83 483.604 107.83C483.88 107.83 484.109 108.059 484.109 108.334Z" fill="#505ABA"/>
<path d="M484.109 94.053V104.433C484.109 104.708 483.88 104.937 483.604 104.937C483.329 104.937 483.099 104.708 483.099 104.433V94.053C483.099 93.778 483.329 93.5488 483.604 93.5488C483.88 93.5488 484.109 93.778 484.109 94.053Z" fill="#505ABA"/>
<path d="M489.914 108.334V118.715C489.914 118.99 489.685 119.219 489.409 119.219C489.134 119.219 488.904 118.99 488.904 118.715V108.334C488.904 108.059 489.134 107.83 489.409 107.83C489.685 107.83 489.914 108.059 489.914 108.334Z" fill="#505ABA"/>
<path d="M489.914 94.053V104.433C489.914 104.708 489.685 104.937 489.409 104.937C489.134 104.937 488.904 104.708 488.904 104.433V94.053C488.904 93.778 489.134 93.5488 489.409 93.5488C489.685 93.5488 489.914 93.778 489.914 94.053Z" fill="#505ABA"/>
<path d="M486.859 105.406V118.72C486.859 118.995 486.63 119.224 486.354 119.224C486.079 119.224 485.849 118.995 485.849 118.72V105.406C485.849 105.131 486.079 104.902 486.354 104.902C486.63 104.902 486.859 105.131 486.859 105.406Z" fill="#505ABA"/>
<path d="M486.859 87.4592V100.773C486.859 101.048 486.63 101.277 486.354 101.277C486.079 101.277 485.849 101.048 485.849 100.773V87.4592C485.849 87.1842 486.079 86.9551 486.354 86.9551C486.63 86.9551 486.859 87.1842 486.859 87.4592Z" fill="#505ABA"/>
<path d="M463.356 159.808H443.546C441.802 159.808 440.378 158.387 440.378 156.646V73.3966C440.378 71.6551 441.802 70.2344 443.546 70.2344H463.356C465.1 70.2344 466.523 71.6551 466.523 73.3966V156.669C466.5 158.41 465.1 159.808 463.356 159.808Z" fill="#8C9DF4"/>
<path d="M447.336 140.491C447.336 137.123 450.068 134.373 453.465 134.373C456.839 134.373 459.594 137.1 459.594 140.491C459.594 143.86 456.862 146.61 453.465 146.61C450.091 146.61 447.336 143.883 447.336 140.491Z" fill="#505ABA"/>
<path d="M453.439 147.297C457.181 147.297 460.211 144.272 460.211 140.537C460.211 136.802 457.181 133.777 453.439 133.777C449.698 133.777 446.668 136.802 446.668 140.537C446.668 144.249 449.721 147.297 453.439 147.297ZM453.439 135.061C456.469 135.061 458.925 137.512 458.925 140.537C458.925 143.562 456.469 146.014 453.439 146.014C450.409 146.014 447.953 143.562 447.953 140.537C447.976 137.512 450.432 135.061 453.439 135.061Z" fill="white"/>
<path d="M459.947 124.685H446.977C446.335 124.685 445.807 124.158 445.807 123.517V75.5105C445.807 74.8688 446.335 74.3418 446.977 74.3418H459.947C460.589 74.3418 461.117 74.8688 461.117 75.5105V123.517C461.117 124.181 460.589 124.685 459.947 124.685Z" fill="#AEC3FF"/>
<path d="M458.378 78.1948H448.829C448.324 78.1948 447.911 77.7823 447.911 77.2782V77.1178C447.911 76.6136 448.324 76.2012 448.829 76.2012H458.378C458.883 76.2012 459.296 76.6136 459.296 77.1178V77.2782C459.319 77.7823 458.906 78.1948 458.378 78.1948Z" fill="#F99746"/>
<path d="M451.477 108.334V118.715C451.477 118.99 451.247 119.219 450.972 119.219C450.696 119.219 450.467 118.99 450.467 118.715V108.334C450.467 108.059 450.696 107.83 450.972 107.83C451.247 107.83 451.477 108.059 451.477 108.334Z" fill="#505ABA"/>
<path d="M451.477 94.053V104.433C451.477 104.708 451.247 104.937 450.972 104.937C450.696 104.937 450.467 104.708 450.467 104.433V94.053C450.467 93.778 450.696 93.5488 450.972 93.5488C451.247 93.5488 451.477 93.778 451.477 94.053Z" fill="#505ABA"/>
<path d="M457.273 108.334V118.715C457.273 118.99 457.044 119.219 456.768 119.219C456.493 119.219 456.263 118.99 456.263 118.715V108.334C456.263 108.059 456.493 107.83 456.768 107.83C457.044 107.83 457.273 108.059 457.273 108.334Z" fill="#505ABA"/>
<path d="M457.273 94.053V104.433C457.273 104.708 457.044 104.937 456.768 104.937C456.493 104.937 456.263 104.708 456.263 104.433V94.053C456.263 93.778 456.493 93.5488 456.768 93.5488C457.044 93.5488 457.273 93.778 457.273 94.053Z" fill="#505ABA"/>
<path d="M454.266 105.406V118.72C454.266 118.995 454.036 119.224 453.761 119.224C453.485 119.224 453.256 118.995 453.256 118.72V105.406C453.256 105.131 453.485 104.902 453.761 104.902C454.059 104.902 454.266 105.131 454.266 105.406Z" fill="#505ABA"/>
<path d="M454.266 87.4592V100.773C454.266 101.048 454.036 101.277 453.761 101.277C453.485 101.277 453.256 101.048 453.256 100.773V87.4592C453.256 87.1842 453.485 86.9551 453.761 86.9551C454.059 86.9551 454.266 87.1842 454.266 87.4592Z" fill="#505ABA"/>
<path d="M430.192 159.808H410.382C408.637 159.808 407.214 158.387 407.214 156.646V73.3966C407.214 71.6551 408.637 70.2344 410.382 70.2344H430.192C431.936 70.2344 433.359 71.6551 433.359 73.3966V156.669C433.359 158.41 431.936 159.808 430.192 159.808Z" fill="#8C9DF4"/>
<path d="M414.125 140.491C414.125 137.123 416.857 134.373 420.254 134.373C423.628 134.373 426.383 137.1 426.383 140.491C426.383 143.86 423.651 146.61 420.254 146.61C416.88 146.61 414.125 143.883 414.125 140.491Z" fill="#505ABA"/>
<path d="M420.268 147.297C424.009 147.297 427.039 144.272 427.039 140.537C427.039 136.802 424.009 133.777 420.268 133.777C416.526 133.777 413.496 136.802 413.496 140.537C413.496 144.249 416.549 147.297 420.268 147.297ZM420.268 135.061C423.297 135.061 425.754 137.512 425.754 140.537C425.754 143.562 423.297 146.014 420.268 146.014C417.238 146.014 414.781 143.562 414.781 140.537C414.804 137.512 417.26 135.061 420.268 135.061Z" fill="white"/>
<path d="M426.736 124.685H413.766C413.124 124.685 412.596 124.158 412.596 123.517V75.5105C412.596 74.8688 413.124 74.3418 413.766 74.3418H426.736C427.378 74.3418 427.906 74.8688 427.906 75.5105V123.517C427.906 124.181 427.378 124.685 426.736 124.685Z" fill="#AEC3FF"/>
<path d="M425.198 78.1948H415.649C415.144 78.1948 414.731 77.7823 414.731 77.2782V77.1178C414.731 76.6136 415.144 76.2012 415.649 76.2012H425.198C425.703 76.2012 426.116 76.6136 426.116 77.1178V77.2782C426.139 77.7823 425.726 78.1948 425.198 78.1948Z" fill="#F99746"/>
<path d="M418.297 108.334V118.715C418.297 118.99 418.067 119.219 417.792 119.219C417.516 119.219 417.287 118.99 417.287 118.715V108.334C417.287 108.059 417.516 107.83 417.792 107.83C418.067 107.83 418.297 108.059 418.297 108.334Z" fill="#505ABA"/>
<path d="M418.297 94.053V104.433C418.297 104.708 418.067 104.937 417.792 104.937C417.516 104.937 417.287 104.708 417.287 104.433V94.053C417.287 93.778 417.516 93.5488 417.792 93.5488C418.067 93.5488 418.297 93.778 418.297 94.053Z" fill="#505ABA"/>
<path d="M424.117 108.334V118.715C424.117 118.99 423.888 119.219 423.612 119.219C423.337 119.219 423.107 118.99 423.107 118.715V108.334C423.107 108.059 423.337 107.83 423.612 107.83C423.888 107.83 424.117 108.059 424.117 108.334Z" fill="#505ABA"/>
<path d="M424.117 94.053V104.433C424.117 104.708 423.888 104.937 423.612 104.937C423.337 104.937 423.107 104.708 423.107 104.433V94.053C423.107 93.778 423.337 93.5488 423.612 93.5488C423.888 93.5488 424.117 93.778 424.117 94.053Z" fill="#505ABA"/>
<path d="M421.086 105.406V118.72C421.086 118.995 420.856 119.224 420.581 119.224C420.305 119.224 420.076 118.995 420.076 118.72V105.406C420.076 105.131 420.305 104.902 420.581 104.902C420.879 104.902 421.086 105.131 421.086 105.406Z" fill="#505ABA"/>
<path d="M421.086 87.4592V100.773C421.086 101.048 420.856 101.277 420.581 101.277C420.305 101.277 420.076 101.048 420.076 100.773V87.4592C420.076 87.1842 420.305 86.9551 420.581 86.9551C420.879 86.9551 421.086 87.1842 421.086 87.4592Z" fill="#505ABA"/>
<path d="M395.942 159.808H376.132C374.387 159.808 372.964 158.387 372.964 156.646V73.3966C372.964 71.6551 374.387 70.2344 376.132 70.2344H395.942C397.686 70.2344 399.109 71.6551 399.109 73.3966V156.669C399.086 158.41 397.686 159.808 395.942 159.808Z" fill="#8C9DF4"/>
<path d="M392.525 124.685H379.555C378.913 124.685 378.385 124.158 378.385 123.517V75.5105C378.385 74.8688 378.913 74.3418 379.555 74.3418H392.525C393.167 74.3418 393.695 74.8688 393.695 75.5105V123.517C393.695 124.181 393.167 124.685 392.525 124.685Z" fill="#AEC3FF"/>
<path d="M390.979 78.1948H381.43C380.925 78.1948 380.512 77.7823 380.512 77.2782V77.1178C380.512 76.6136 380.925 76.2012 381.43 76.2012H390.979C391.484 76.2012 391.898 76.6136 391.898 77.1178V77.2782C391.92 77.7823 391.507 78.1948 390.979 78.1948Z" fill="#F99746"/>
<path d="M362.949 159.808H343.14C341.395 159.808 339.972 158.387 339.972 156.646V73.3966C339.972 71.6551 341.395 70.2344 343.14 70.2344H362.949C364.694 70.2344 366.117 71.6551 366.117 73.3966V156.669C366.094 158.41 364.694 159.808 362.949 159.808Z" fill="#8C9DF4"/>
<path d="M359.517 124.685H346.548C345.905 124.685 345.377 124.158 345.377 123.517V75.5105C345.377 74.8688 345.905 74.3418 346.548 74.3418H359.517C360.16 74.3418 360.688 74.8688 360.688 75.5105V123.517C360.688 124.181 360.16 124.685 359.517 124.685Z" fill="#AEC3FF"/>
<path d="M357.972 78.1948H348.423C347.918 78.1948 347.504 77.7823 347.504 77.2782V77.1178C347.504 76.6136 347.918 76.2012 348.423 76.2012H357.972C358.477 76.2012 358.89 76.6136 358.89 77.1178V77.2782C358.913 77.7823 358.499 78.1948 357.972 78.1948Z" fill="#F99746"/>
<path d="M495.981 261.101H476.171C474.427 261.101 473.003 259.68 473.003 257.939V174.69C473.003 172.948 474.427 171.527 476.171 171.527H495.981C497.725 171.527 499.148 172.948 499.148 174.69V257.962C499.125 259.703 497.725 261.101 495.981 261.101Z" fill="#8C9DF4"/>
<path d="M486.059 247.908C482.674 247.908 479.93 245.169 479.93 241.79C479.93 238.411 482.674 235.672 486.059 235.672C489.444 235.672 492.188 238.411 492.188 241.79C492.188 245.169 489.444 247.908 486.059 247.908Z" fill="#505ABA"/>
<path d="M486.049 248.604C489.79 248.604 492.82 245.579 492.82 241.844C492.82 238.109 489.79 235.084 486.049 235.084C482.307 235.084 479.277 238.109 479.277 241.844C479.277 245.556 482.307 248.604 486.049 248.604ZM486.049 236.367C489.079 236.367 491.535 238.819 491.535 241.844C491.535 244.869 489.079 247.32 486.049 247.32C483.019 247.32 480.563 244.869 480.563 241.844C480.563 238.819 483.042 236.367 486.049 236.367Z" fill="white"/>
<path d="M492.532 225.98H479.563C478.92 225.98 478.393 225.453 478.393 224.812V176.805C478.393 176.164 478.92 175.637 479.563 175.637H492.532C493.175 175.637 493.703 176.164 493.703 176.805V224.812C493.703 225.476 493.175 225.98 492.532 225.98Z" fill="#AEC3FF"/>
<path d="M490.996 179.478H481.447C480.942 179.478 480.529 179.065 480.529 178.561V178.401C480.529 177.897 480.942 177.484 481.447 177.484H490.996C491.501 177.484 491.914 177.897 491.914 178.401V178.561C491.914 179.065 491.501 179.478 490.996 179.478Z" fill="#F99746"/>
<path d="M484.109 209.658V220.039C484.109 220.314 483.88 220.543 483.604 220.543C483.329 220.543 483.099 220.314 483.099 220.039V209.658C483.099 209.383 483.329 209.154 483.604 209.154C483.88 209.154 484.109 209.383 484.109 209.658Z" fill="#505ABA"/>
<path d="M484.109 195.364V205.744C484.109 206.019 483.88 206.248 483.604 206.248C483.329 206.248 483.099 206.019 483.099 205.744V195.364C483.099 195.089 483.329 194.859 483.604 194.859C483.88 194.859 484.109 195.089 484.109 195.364Z" fill="#505ABA"/>
<path d="M489.914 209.658V220.039C489.914 220.314 489.685 220.543 489.409 220.543C489.134 220.543 488.904 220.314 488.904 220.039V209.658C488.904 209.383 489.134 209.154 489.409 209.154C489.685 209.154 489.914 209.383 489.914 209.658Z" fill="#505ABA"/>
<path d="M489.914 195.364V205.744C489.914 206.019 489.685 206.248 489.409 206.248C489.134 206.248 488.904 206.019 488.904 205.744V195.364C488.904 195.089 489.134 194.859 489.409 194.859C489.685 194.859 489.914 195.089 489.914 195.364Z" fill="#505ABA"/>
<path d="M486.859 206.715V220.029C486.859 220.303 486.63 220.533 486.354 220.533C486.079 220.533 485.849 220.303 485.849 220.029V206.715C485.849 206.44 486.079 206.211 486.354 206.211C486.63 206.211 486.859 206.44 486.859 206.715Z" fill="#505ABA"/>
<path d="M486.859 188.776V202.089C486.859 202.364 486.63 202.593 486.354 202.593C486.079 202.593 485.849 202.364 485.849 202.089V188.776C485.849 188.501 486.079 188.271 486.354 188.271C486.63 188.271 486.859 188.501 486.859 188.776Z" fill="#505ABA"/>
<path d="M463.356 261.101H443.546C441.802 261.101 440.378 259.68 440.378 257.939V174.69C440.378 172.948 441.802 171.527 443.546 171.527H463.356C465.1 171.527 466.523 172.948 466.523 174.69V257.962C466.5 259.703 465.1 261.101 463.356 261.101Z" fill="#8C9DF4"/>
<path d="M447.336 241.79C447.336 238.422 450.068 235.672 453.465 235.672C456.839 235.672 459.594 238.399 459.594 241.79C459.594 245.159 456.862 247.908 453.465 247.908C450.091 247.908 447.336 245.181 447.336 241.79Z" fill="#505ABA"/>
<path d="M453.439 248.604C457.181 248.604 460.211 245.579 460.211 241.844C460.211 238.109 457.181 235.084 453.439 235.084C449.698 235.084 446.668 238.109 446.668 241.844C446.668 245.556 449.721 248.604 453.439 248.604ZM453.439 236.367C456.469 236.367 458.925 238.819 458.925 241.844C458.925 244.869 456.469 247.32 453.439 247.32C450.409 247.32 447.953 244.869 447.953 241.844C447.976 238.819 450.432 236.367 453.439 236.367Z" fill="white"/>
<path d="M459.947 225.98H446.977C446.335 225.98 445.807 225.453 445.807 224.812V176.805C445.807 176.164 446.335 175.637 446.977 175.637H459.947C460.589 175.637 461.117 176.164 461.117 176.805V224.812C461.117 225.476 460.589 225.98 459.947 225.98Z" fill="#AEC3FF"/>
<path d="M458.378 179.478H448.829C448.324 179.478 447.911 179.065 447.911 178.561V178.401C447.911 177.897 448.324 177.484 448.829 177.484H458.378C458.883 177.484 459.296 177.897 459.296 178.401V178.561C459.319 179.065 458.906 179.478 458.378 179.478Z" fill="#F99746"/>
<path d="M451.477 209.658V220.039C451.477 220.314 451.247 220.543 450.972 220.543C450.696 220.543 450.467 220.314 450.467 220.039V209.658C450.467 209.383 450.696 209.154 450.972 209.154C451.247 209.154 451.477 209.383 451.477 209.658Z" fill="#505ABA"/>
<path d="M451.477 195.364V205.744C451.477 206.019 451.247 206.248 450.972 206.248C450.696 206.248 450.467 206.019 450.467 205.744V195.364C450.467 195.089 450.696 194.859 450.972 194.859C451.247 194.859 451.477 195.089 451.477 195.364Z" fill="#505ABA"/>
<path d="M457.273 209.658V220.039C457.273 220.314 457.044 220.543 456.768 220.543C456.493 220.543 456.263 220.314 456.263 220.039V209.658C456.263 209.383 456.493 209.154 456.768 209.154C457.044 209.154 457.273 209.383 457.273 209.658Z" fill="#505ABA"/>
<path d="M457.273 195.364V205.744C457.273 206.019 457.044 206.248 456.768 206.248C456.493 206.248 456.263 206.019 456.263 205.744V195.364C456.263 195.089 456.493 194.859 456.768 194.859C457.044 194.859 457.273 195.089 457.273 195.364Z" fill="#505ABA"/>
<path d="M454.266 206.715V220.029C454.266 220.303 454.036 220.533 453.761 220.533C453.485 220.533 453.256 220.303 453.256 220.029V206.715C453.256 206.44 453.485 206.211 453.761 206.211C454.059 206.211 454.266 206.44 454.266 206.715Z" fill="#505ABA"/>
<path d="M454.266 188.776V202.089C454.266 202.364 454.036 202.593 453.761 202.593C453.485 202.593 453.256 202.364 453.256 202.089V188.776C453.256 188.501 453.485 188.271 453.761 188.271C454.059 188.271 454.266 188.501 454.266 188.776Z" fill="#505ABA"/>
<path d="M430.192 261.101H410.382C408.637 261.101 407.214 259.68 407.214 257.939V174.69C407.214 172.948 408.637 171.527 410.382 171.527H430.192C431.936 171.527 433.359 172.948 433.359 174.69V257.962C433.359 259.703 431.936 261.101 430.192 261.101Z" fill="#8C9DF4"/>
<path d="M395.942 261.101H376.132C374.387 261.101 372.964 259.68 372.964 257.939V174.69C372.964 172.948 374.387 171.527 376.132 171.527H395.942C397.686 171.527 399.109 172.948 399.109 174.69V257.962C399.086 259.703 397.686 261.101 395.942 261.101Z" fill="#8C9DF4"/>
<path d="M362.949 261.101H343.14C341.395 261.101 339.972 259.68 339.972 257.939V174.69C339.972 172.948 341.395 171.527 343.14 171.527H362.949C364.694 171.527 366.117 172.948 366.117 174.69V257.962C366.094 259.703 364.694 261.101 362.949 261.101Z" fill="#8C9DF4"/>
<path d="M506.129 313.575C507.873 313.575 509.273 312.177 509.273 310.436V60.9635C509.273 59.222 507.873 57.8242 506.129 57.8242C504.384 57.8242 502.984 59.222 502.984 60.9635V310.436C502.984 312.177 504.384 313.575 506.129 313.575Z" fill="#BDD1F9"/>
<path d="M509.226 162.318L327.703 162.318V159.798L509.226 159.798V162.318Z" fill="#BDD1F9"/>
<path d="M509.231 263.604H316.438V261.083H509.231V263.604Z" fill="#BDD1F9"/>
</g>
<path d="M123.444 144.244C123.444 144.244 140.705 159.207 137.721 162.232C134.737 165.257 119.702 144.175 119.702 144.175C119.702 144.175 97.1148 149.262 91.1696 154.945C91.1696 154.945 114.927 164.088 111.301 166.288C107.651 168.488 82.4929 160.124 82.4929 160.124C82.4929 160.124 63.2571 170.298 68.4448 182.351C73.6325 194.404 81.9191 195.939 84.9031 194.587C87.8872 193.235 103.657 180.426 104.896 182.832C106.113 185.238 97.9871 197.062 90.504 199.949C90.504 199.949 110.084 211.04 118.141 203.341C126.175 195.642 124.614 188.125 129.664 183.451C134.714 178.776 139.81 177.126 138.272 180.701C136.734 184.276 126.841 190.509 125.418 197.635C123.994 204.762 122.273 209.826 131.661 205.082C141.05 200.339 154.73 187.851 152.71 179.349C152.619 178.983 152.527 178.616 152.458 178.295C152.687 178.937 152.71 179.349 152.71 179.349C154.891 179.028 160.4 181.411 164.486 183.359C165.129 183.726 166.07 184.207 167.401 184.803C167.975 185.101 168.434 185.33 168.756 185.513C177.249 190.371 185.489 203.845 185.489 203.845L187.578 202.951C181.587 187.553 166.804 182.672 166.804 182.672C156.062 178.043 150.69 170.848 150.69 170.848C150.69 170.848 159.344 149.881 142.725 143.831C142.679 143.854 131.133 141.196 123.444 144.244Z" fill="#D2E2F9"/>
<path d="M60.9531 267.535H46.1016L46.1016 219.735H60.9531L60.9531 267.535Z" fill="#35488B"/>
<path d="M96.7698 267.535H60.9609L60.9609 219.735H96.7698V267.535Z" fill="#2C3A64"/>
<path d="M51.034 225.684C51.034 224.309 52.1358 223.209 53.5131 223.209C54.8904 223.209 55.9922 224.309 55.9922 225.684C55.9922 227.059 54.8904 228.159 53.5131 228.159C52.1358 228.159 51.034 227.059 51.034 225.684Z" fill="#DDE7FE"/>
<path d="M51.8 225.689C51.8 224.726 52.5805 223.947 53.5446 223.947C54.5086 223.947 55.2891 224.726 55.2891 225.689C55.2891 226.651 54.5086 227.43 53.5446 227.43C52.5805 227.43 51.8 226.651 51.8 225.689Z" fill="#6C7AFF"/>
<path d="M57.1109 244.236H50.1328V231.656H57.1109V244.236Z" fill="#8FADEF"/>
<path d="M88.6405 267.535H73.7891V219.735H88.6405V267.535Z" fill="#35488B"/>
<path d="M124.481 267.535H88.6719V219.735H124.481V267.535Z" fill="#2C3A64"/>
<path d="M78.7294 225.684C78.7294 224.309 79.8312 223.209 81.2084 223.209C82.5857 223.209 83.6875 224.309 83.6875 225.684C83.6875 227.059 82.5857 228.159 81.2084 228.159C79.8541 228.159 78.7294 227.059 78.7294 225.684Z" fill="#DDE7FE"/>
<path d="M79.4875 225.689C79.4875 224.726 80.2679 223.947 81.232 223.947C82.1961 223.947 82.9766 224.726 82.9766 225.689C82.9766 226.651 82.1961 227.43 81.232 227.43C80.2679 227.43 79.4875 226.651 79.4875 225.689Z" fill="#6C7AFF"/>
<path d="M84.775 244.236H77.7969V231.656H84.775V244.236Z" fill="#8FADEF"/>
<path d="M113.945 267.535H99.0938V219.735H113.945V267.535Z" fill="#35488B"/>
<path d="M149.762 267.535H113.953V219.735H149.762V267.535Z" fill="#2C3A64"/>
<path d="M104.026 225.684C104.026 224.309 105.128 223.209 106.505 223.209C107.883 223.209 108.984 224.309 108.984 225.684C108.984 227.059 107.883 228.159 106.505 228.159C105.151 228.159 104.026 227.059 104.026 225.684Z" fill="#DDE7FE"/>
<path d="M104.8 225.689C104.8 224.726 105.58 223.947 106.545 223.947C107.509 223.947 108.289 224.726 108.289 225.689C108.289 226.651 107.509 227.43 106.545 227.43C105.58 227.43 104.8 226.651 104.8 225.689Z" fill="#6C7AFF"/>
<path d="M110.08 244.236H103.102V231.656H110.08V244.236Z" fill="#8FADEF"/>
<path d="M151.985 312.697H68.1094L68.1094 250.85H151.985V312.697Z" fill="#F77D48"/>
<path d="M107.054 312.697H40.5547L40.5547 250.85H107.054L107.054 312.697Z" fill="#FF8C64"/>
<path d="M78.6265 260.951H61.4107C60.3548 260.951 59.4825 260.081 59.4825 259.027V258.774C59.4825 257.72 60.3548 256.85 61.4107 256.85H78.6265C79.6824 256.85 80.5547 257.72 80.5547 258.774V259.027C80.5547 260.081 79.6824 260.951 78.6265 260.951Z" fill="#2C3A64"/>
<path d="M278.292 169.999L289.632 304.622C289.632 304.622 290.825 312.78 284.742 312.803C274.734 312.826 234.977 312.803 234.977 312.803C234.977 312.803 242.506 311.107 242.415 307.281C242.3 302.766 229.17 168.738 229.17 168.738L278.292 169.999Z" fill="#798EE8"/>
<path d="M231.246 310.354C233.22 310.354 271.715 310.423 281.447 310.308C285.694 310.263 286.428 306.55 286.474 304.144C286.497 302.999 286.337 302.151 286.337 302.151L286.038 298.645L285.281 289.731L284.615 281.848L283.766 271.72L283.054 263.173L274.997 167.504L225.852 166.221C225.852 166.221 231.384 222.316 235.309 263.15C235.745 267.71 236.158 272.064 236.549 276.143C236.663 277.449 236.801 278.709 236.916 279.946C237.283 283.819 237.604 287.348 237.903 290.487C238.064 292.137 238.201 293.672 238.316 295.07C238.821 300.57 239.119 304.098 239.119 304.763C239.119 305.153 239.096 305.519 239.028 305.863C238.224 310.148 231.981 310.354 231.246 310.354Z" fill="#AEC3FF"/>
<path d="M397.641 96.6699L370.026 207.462L366.239 222.632L353.385 274.236H114.315L161.761 96.6699H397.641Z" fill="#AEC3FF"/>
<path d="M397.628 96.6699L401.461 97.9532L358.444 278.086L353.371 274.236L397.628 96.6699Z" fill="#798EE8"/>
<path d="M358.469 278.086H120.891L114.326 274.236H353.396L358.469 278.086Z" fill="#849DEF"/>
<path d="M275.003 312.783H223.562V310.354H275.003V312.783Z" fill="#AEC3FF"/>
<path d="M236.664 278.09L236.94 279.946L285.305 289.708L284.662 281.825L284.341 278.09H236.664Z" fill="#8C9DF4"/>
<g opacity="0.5">
<path d="M231.248 310.351C233.222 310.351 271.717 310.42 281.45 310.305C285.696 310.259 286.431 306.547 286.477 304.141L238.318 295.09C238.823 300.589 239.122 304.118 239.122 304.783C239.122 305.172 239.099 305.539 239.03 305.883C238.226 310.145 231.983 310.351 231.248 310.351Z" fill="#8C9DF4"/>
</g>
<path d="M397.641 96.6699H161.761L123.473 239.36H362.061L397.641 96.6699Z" fill="#8C9DF4"/>
<path d="M134.62 233.193H355.487L363.383 201.799L366.436 189.655L367.676 184.705L375.801 152.441L376.215 150.768L380.507 133.72L382.412 126.089L384.065 119.581L385.396 114.265L387.898 104.32H170.199L167.444 114.265L165.998 119.581L164.185 126.089L162.096 133.72L148.209 183.972L147.038 188.234L146.487 190.205L136.892 224.897L134.62 233.193Z" fill="#505ABA"/>
<path d="M410.857 173.353C410.857 173.353 410.283 167.074 417.307 167.074C417.307 167.074 415.173 167.647 414.094 168.793C414.094 168.793 418.57 166.181 423.436 170.191C428.303 174.224 425.273 184.329 426.765 186.254C428.257 188.179 434.018 188.545 433.307 194.755C432.595 200.965 415.012 208.733 416.137 213.866C416.137 213.866 409.25 203.738 414.163 199.132C414.163 199.132 411.752 201.4 411.523 204.081C411.523 204.081 410.88 198.834 414.209 197.161C417.17 195.672 419.58 190.241 419.327 189.279C419.052 188.316 410.857 173.353 410.857 173.353Z" fill="#2C3A64"/>
<path d="M417.751 203.434C417.751 203.434 412.517 225.088 407.375 229.396C404.277 231.985 395.095 237.966 395.095 237.966L398.928 239.341C398.928 239.341 411.691 235.033 414.537 231.687C417.383 228.342 425.211 211.545 425.211 211.545L417.751 203.434Z" fill="#FFB27D"/>
<path d="M387.501 245.885L388.741 242.838C390.072 239.584 393.24 237.43 396.752 237.43H419.477V251.82V313.254H325.501V251.82H378.664C382.543 251.843 386.055 249.483 387.501 245.885Z" fill="#F99746"/>
<path d="M467.012 241.457C466.966 241.549 466.92 241.617 466.874 241.709C465.727 243.703 463.087 248.583 460.195 253.9C458.817 256.42 457.394 259.055 456.017 261.553C453.675 265.838 451.541 269.642 450.301 271.659C449.039 273.698 448.098 275.142 447.73 275.714C447.616 275.898 447.593 276.104 447.616 276.31C447.753 278.12 447.707 279.908 447.524 281.672C445.779 299.042 434.049 308.345 434.049 308.345L430.56 308.849C430.56 308.849 435.496 290.609 436.942 280.297C437.194 278.556 437.286 277.135 437.217 276.219C436.965 273.538 437.447 269.596 438.342 265.059C439.949 257.016 442.91 247.117 445.481 239.211C445.641 238.707 450.554 220.994 450.554 220.994C454.663 224.592 469.675 226.058 469.675 226.058C469.675 226.058 472.2 232.245 467.012 241.457Z" fill="#2F539B"/>
<path d="M423.213 313.267H437.766C437.766 313.267 438.11 311.044 437.352 309.371C436.618 307.767 435.585 307.698 437.215 305.178C436.297 306.117 433.313 306.53 431.224 306.232C430.971 306.644 429.571 309.44 428.699 310.059C427.735 310.769 423.511 310.517 423.213 313.267Z" fill="#233862"/>
<path d="M466.984 241.453C466.938 241.545 466.893 241.613 466.847 241.705C465.699 243.699 459.501 255.133 456.609 260.472C459.96 246.677 457.642 232.883 457.642 232.883L466.984 241.453Z" fill="#233862"/>
<path d="M412.837 172.451C412.745 172.062 421.146 176.255 421.582 176.713C425.53 181.067 424.406 186.773 422.133 186.819C420.687 186.865 420.962 189.248 420.962 189.248L404.848 182.442C404.848 182.465 406.777 171.168 412.837 172.451Z" fill="#2C3A64"/>
<path d="M418.257 200.176C418.257 200.176 415.801 205.057 416.122 209.044C416.122 209.044 419.083 213.695 426.75 214.887C426.727 214.887 420.139 200.176 418.257 200.176Z" fill="#6385DB"/>
<path d="M455.673 227.152L455.627 224.425C461.045 225.112 474.312 217.963 474.312 217.963C474.312 217.963 479.982 221.721 480.763 232.491C481.153 237.738 483.54 259.943 483.815 266.565C483.907 268.971 483.953 270.69 483.953 271.377C483.953 271.583 484.045 271.767 484.183 271.927C485.307 273.348 486.272 274.86 487.121 276.418C495.384 291.794 491.069 312.669 491.069 312.669L489.141 312.188C489.141 312.188 482.14 290.534 477.572 281.185C476.791 279.603 476.08 278.366 475.506 277.656C473.784 275.57 471.971 272.042 470.181 267.779C466.806 259.713 455.673 227.152 455.673 227.152Z" fill="#2F539B"/>
<path d="M479.478 313.261H494.031C494.031 313.261 494.376 311.038 493.618 309.365C492.884 307.761 491.759 307.028 492.011 305.08C491.093 306.02 489.578 307.097 487.466 306.822C487.214 307.234 485.814 309.48 484.941 310.098C484.023 310.763 479.777 310.511 479.478 313.261Z" fill="#233862"/>
<path d="M427.72 218.009C429.671 218.352 427.398 219.888 430.084 220.186C433.918 220.598 437.866 220.896 439.932 221.721C440.689 222.019 441.194 222.385 441.355 222.867C442.25 225.571 447.943 230.176 447.943 230.176C473.284 229.031 474.914 217.757 474.914 217.757C458.479 201.808 444.477 193.123 432.908 192.046C430.084 191.794 426.297 192.138 424.529 192.917C420.489 194.705 418.263 200.181 418.263 200.181C418.263 200.181 420.283 216.748 427.72 218.009Z" fill="#739AF0"/>
<path d="M430.085 220.197C433.919 220.609 437.867 220.907 439.933 221.732C440.782 209.129 434.814 199.619 434.814 199.619C434.814 199.619 430.935 215.407 430.085 220.197Z" fill="#6385DB"/>
<path d="M426.76 197.486C426.76 197.486 436.378 196.959 438.099 202.986C439.798 209.012 434.886 233.096 433.83 235.57C431.902 240.085 422.169 253.559 422.169 253.559L419.047 251.955C419.047 251.955 425.314 232.225 426.714 230.277C428.918 227.207 423.891 200.099 426.76 197.486Z" fill="#FFB27D"/>
<path d="M419.05 251.952C419.05 251.952 418.247 252.639 417.604 253.441C416.961 254.22 417.535 254.518 415.676 258.093C415.676 258.093 415.768 258.597 416.181 258.505C416.594 258.413 417.994 257.039 418.706 257.13C418.706 257.13 419.211 257.543 419.28 258.963C419.325 260.27 419.325 263.18 419.555 263.707C419.785 264.257 421.46 261.415 422.264 259.376C422.975 257.589 422.287 251.539 422.287 251.539L419.05 251.952Z" fill="#FFB27D"/>
<path d="M440.016 211.057C439.993 211.195 430.903 212.73 425.233 209.843C425.233 209.843 420.481 194.994 427.276 195.704C434.047 196.415 438.064 198.546 438.248 201.777C438.386 205.031 440.016 211.057 440.016 211.057Z" fill="#739AF0"/>
<path d="M424.729 193.958C424.638 195.149 424.477 196.57 422.893 198.174C421.677 199.411 419.955 200.374 418.715 199.159C418.096 198.541 417.246 197.601 416.833 196.868C415.777 195.057 414.515 193.201 414.515 193.201L419.955 188.435L420.276 188.16C421.699 190.658 423.1 191.849 424.339 192.766C424.707 193.041 424.752 193.499 424.729 193.958Z" fill="#FFB27D"/>
<path d="M414.509 193.217C414.509 193.217 415.771 195.074 416.827 196.884C420.201 194.799 420.224 190.628 419.949 188.451L414.509 193.217Z" fill="#ED985F"/>
<path d="M414.345 195.609C414.345 195.609 422.563 191.049 419.648 185.985C416.733 180.92 415.814 176.91 410.443 179.614C405.072 182.318 405.186 184.839 405.737 186.764C406.311 188.688 412.142 196.663 414.345 195.609Z" fill="#FFB27D"/>
<path d="M404.369 183.796C404.736 181.55 405.884 181.321 406.687 181.482C409.717 176.463 414.675 178.434 414.675 178.434C417.315 181.757 421.148 182.33 421.148 182.33C421.148 182.33 420.184 184.094 416.259 185.194C415.066 185.538 413.688 185.331 412.38 184.873C415.111 186.385 417.958 186.981 417.958 186.981C412.77 187.462 407.858 182.719 407.353 182.215C407.123 182.948 406.687 184.484 406.94 185.606C407.284 187.119 408.638 189.891 407.812 190.235C407.812 190.235 403.795 187.165 404.369 183.796Z" fill="#2C3A64"/>
<path d="M393.567 237.996C393.567 237.996 395.863 239.715 394.141 240.838C392.419 241.961 389.321 242.259 389.321 241.525C389.252 239.051 390.491 237.286 393.567 237.996Z" fill="#FFB27D"/>
<path d="M6.34595 314.345H541.459C541.803 314.345 542.102 314.07 542.102 313.704V313.429C542.102 313.085 541.826 312.787 541.459 312.787H6.36884C6.02454 312.787 5.7262 313.062 5.7262 313.429V313.704C5.7262 314.07 6.00165 314.345 6.34595 314.345Z" fill="#233862"/>
<path d="M338.61 142.287L340.653 139.285C342.834 136.054 346.552 133.969 350.018 133.969H372.422L368.543 148.153L353.117 204.477C352.429 206.998 350.133 208.762 347.516 208.762H266.878C263.044 208.762 260.244 205.119 261.277 201.43L275.876 148.176H328.326C332.137 148.13 336.223 145.816 338.61 142.287Z" fill="#F99746"/>
<path d="M336.314 125.382C336.659 125.794 336.705 126.229 336.544 126.711C336.223 127.604 335.167 128.59 333.927 129.575C333.766 129.712 333.629 129.827 333.514 129.919C333.491 129.942 333.445 129.965 333.422 130.01C333.399 130.033 333.376 130.056 333.353 130.079C332.206 131.133 332.642 131.385 330.576 133.539C328.211 135.991 326.605 136.037 326.146 135.808C325.755 135.624 326.559 134.318 327.431 132.852C327.477 132.783 327.523 132.714 327.569 132.646C327.683 132.462 327.798 132.256 327.913 132.05C328.946 130.285 328.671 129.46 328.441 126.848C328.234 124.717 325.136 114.978 325.136 114.978L329.658 114.199C329.658 114.199 331.012 121.967 332.527 123.159C333.33 123.8 334.226 123.8 335.006 124.282C335.052 124.305 335.121 124.35 335.167 124.373C335.511 124.694 335.97 124.992 336.314 125.382Z" fill="#FFB27D"/>
<path d="M336.314 125.38C336.659 125.793 336.705 126.228 336.544 126.709C336.154 127.603 335.121 128.588 333.927 129.574C333.766 129.711 333.629 129.826 333.514 129.94C333.491 129.963 333.445 129.986 333.422 130.032C333.399 130.055 333.376 130.078 333.353 130.101C332.206 131.155 332.642 131.407 330.576 133.561C328.211 136.013 326.605 136.059 326.146 135.829C325.755 135.646 326.559 134.34 327.431 132.873C327.89 132.713 330.025 131.842 331.632 129.78C333.009 128.038 333.927 125.816 334.868 124.464C334.96 124.441 335.029 124.441 335.144 124.418C335.511 124.693 335.97 124.991 336.314 125.38Z" fill="#233862"/>
<path d="M299.858 122.585C299.583 123.983 297.586 123.754 295.382 123.204C293.155 122.654 293.683 123.295 290.539 122.952C287.371 122.608 286.43 121.416 286.315 120.958C286.223 120.546 287.784 120.385 289.46 120.202C289.666 120.179 289.873 120.156 290.102 120.133C291.985 119.904 293.385 118.667 295.107 117.681C296.736 116.742 299.169 112.869 299.169 112.869L303.508 113.213C303.508 113.213 301.235 116.673 300.363 118.162C299.835 119.033 299.881 120.202 299.927 121.118C299.927 121.6 299.95 122.081 299.858 122.585Z" fill="#FFB27D"/>
<path d="M295.399 123.195C293.173 122.645 293.701 123.287 290.556 122.943C287.388 122.599 286.447 121.408 286.332 120.95C286.24 120.537 287.801 120.377 289.477 120.193L289.5 120.216C289.5 120.216 291.405 121.568 294.022 121.614C296.157 121.66 298.429 121.041 299.921 121.064C299.944 121.545 299.99 122.049 299.898 122.554C299.6 123.974 297.603 123.745 295.399 123.195Z" fill="#233862"/>
<path d="M316.469 94.9032L320.532 105.788L325.835 119.995C325.835 119.995 327.281 120.132 328.635 119.743C329.898 119.376 331.344 118.414 331.344 118.414C331.344 118.414 329.875 103.152 327.12 94.3991C326.409 92.1534 325.628 90.3432 324.756 89.312C320.532 84.3166 316.469 94.9032 316.469 94.9032Z" fill="#ED7D2B"/>
<path d="M320.616 77.6281C322.912 76.8948 328.949 77.6051 335.468 78.7967C337.281 79.1175 339.095 78.2926 340.036 76.7344L356.471 75.4512C356.471 75.4512 361.888 87.4585 358.927 95.0891C358.491 96.2119 357.527 96.9222 356.058 96.9452C356.058 96.9452 346.142 96.9681 342.951 96.9681C334.779 96.9681 325.666 91.3769 324.473 91.1248C322.545 90.7353 321.764 94.5849 319.836 98.6408C317.908 102.697 301.679 116.583 301.679 116.583C301.679 116.583 299.177 116.606 298.167 116.216C297.065 115.804 296.652 115.254 296.652 115.254C296.652 115.254 314.625 79.5529 320.616 77.6281Z" fill="#F99746"/>
<path d="M341.766 28.5691C342.982 27.8358 344.176 27.7212 344.91 27.7441C345.415 27.7671 345.92 27.7212 346.425 27.6525C352.692 26.7359 356.479 35.833 356.686 38.5599C357.099 43.6011 359.762 44.3802 363.526 47.5195C371.078 53.844 368.852 61.1996 364.743 63.9494C362.264 65.5992 357.903 63.9494 357.903 63.9494C357.834 63.9952 345.966 57.327 340.113 54.119C331.367 52.9045 338.254 30.6543 341.766 28.5691Z" fill="#233862"/>
<path d="M345.012 51.4115C344.989 51.4344 347.881 52.4197 349.832 51.5489C351.669 50.7469 353.046 47.7451 353.023 47.7451C352.197 47.6993 351.279 46.9889 350.567 42.2227L350.223 42.3601L344.278 44.4912C344.278 44.4912 344.714 46.3931 344.989 48.2034C345.219 49.7158 345.333 51.1823 345.012 51.4115Z" fill="#FFB27D"/>
<path d="M344.274 44.4768C344.274 44.4768 344.503 45.5079 344.847 47.4328C348.268 46.8141 349.737 44.1789 350.219 42.3457L344.274 44.4768Z" fill="#ED975D"/>
<path d="M343.391 46.3766C343.391 46.3766 351.54 45.2767 350.76 40.2355C350.002 35.1943 350.53 31.6425 345.32 32.1237C340.086 32.6049 339.374 34.6901 339.214 36.4317C339.053 38.1961 341.257 46.537 343.391 46.3766Z" fill="#FFB27D"/>
<path d="M339.498 33.6719C339.498 33.6719 344.709 38.1632 348.244 38.5069C351.778 38.8735 353.133 37.7278 353.133 37.7278C353.133 37.7278 351.044 35.9863 349.781 33.2136C349.414 32.3886 348.634 31.8158 347.716 31.747C345.214 31.5179 340.416 31.4262 339.498 33.6719Z" fill="#233862"/>
<path d="M342.75 33.2631C342.75 33.2631 341.005 34.9359 340.455 36.1962C339.927 37.4107 339.766 40.275 340.179 41.4208C340.179 41.4208 337.47 36.1504 339.008 33.5839C340.638 30.88 342.75 33.2631 342.75 33.2631Z" fill="#233862"/>
<path d="M338.148 63.3746C338.4 79.8274 338.217 76.3901 340.03 77.9483C340.466 78.315 341.683 78.5441 343.29 78.6587C348.34 79.0024 357.223 78.1546 357.567 77.2151C358.738 73.9841 357.912 72.9988 358.876 68.0492C358.968 67.5222 359.105 66.9493 359.243 66.3306C360.046 62.9392 360.85 61.7935 357.958 56.3398C355.341 51.4131 352.632 47.4031 352.403 47.5405C345.516 51.6194 344.965 48.1822 344.965 48.1822C344.965 48.1822 338.01 55.3545 338.148 63.3746Z" fill="#2F539B"/>
<path d="M320.532 105.789L325.835 119.996C325.835 119.996 327.281 120.134 328.635 119.744C329.898 119.377 331.344 118.415 331.344 118.415C331.344 118.415 329.875 103.154 327.12 94.4004L320.532 105.789Z" fill="#F99746"/>
<path d="M344.984 48.1953C344.984 48.1953 337.914 49.3869 337.065 52.4345C336.239 55.4822 333.507 73.9514 333.507 73.9514C333.507 73.9514 335.504 75.8992 337.157 74.2264C338.81 72.5765 342.391 56.9487 342.391 56.9487L344.984 48.1953Z" fill="#2F539B"/>
<path d="M343.328 78.6583C348.378 79.002 357.261 78.1541 357.606 77.2146C358.776 73.9837 357.95 72.9983 358.914 68.0488L356.481 61.1973C356.481 61.1973 356.894 68.8279 354.645 70.8214C352.395 72.8379 345.417 74.694 344.315 76.3668C343.764 77.1917 343.42 77.9937 343.328 78.6583Z" fill="#233862"/>
<path d="M349.086 75.4364C349.086 75.4364 344.105 74.3365 343.301 74.7719C342.498 75.2073 340.524 76.8113 340.294 77.3842C340.042 77.9341 342.085 76.9488 342.751 76.7884C343.187 76.6738 344.311 77.0633 344.862 77.2467C347.204 78.0258 348.65 77.6362 348.65 77.6362L349.086 75.4364Z" fill="#FFB27D"/>
<path d="M352.429 47.5371C352.429 47.5371 359.131 47.9496 361.45 51.1805C364.709 55.7177 371.183 75.0806 367.487 77.647C363.309 80.5572 348.481 78.4032 348.481 78.4032C348.481 78.4032 347.976 76.1117 348.664 74.9889C349.353 73.8661 360.509 72.0788 361.014 71.5517C361.519 71.0476 354.564 61.538 354.564 59.9798C354.564 58.4674 352.429 47.5371 352.429 47.5371Z" fill="#2F539B"/>
<path d="M343.055 76.1504C343.055 76.1504 342.022 77.5024 341.677 77.6628C341.333 77.8232 341.104 77.7773 341.104 77.7773L341.815 76.517L343.055 76.1504Z" fill="#FFB27D"/>
<path d="M343.297 74.7754L340.267 76.2419C340.267 76.2419 340.405 76.4482 340.772 76.4253C341.139 76.4023 342.08 76.0586 342.08 76.0586L343.297 74.7754Z" fill="#FFB27D"/>
<path d="M317.371 78.2319L349.094 78.209V78.9193H317.646L317.371 78.2319Z" fill="#233862"/>
<path d="M341.68 78.9227H317.646L310.416 61.0034L334.403 60.9805L341.68 78.9227Z" fill="#233862"/>
<path d="M323.704 69.9602C323.521 69.3186 323.888 68.8145 324.531 68.8145C325.173 68.8145 325.816 69.3186 326 69.9602C326.183 70.6018 325.816 71.1059 325.173 71.1059C324.553 71.1059 323.888 70.5789 323.704 69.9602Z" fill="white"/>
<g opacity="0.5">
<path d="M205.227 138.226L211.861 129.748L212.183 129.358L212.55 129.289L243.217 123.652L253.523 179.633L213.789 186.943L204.952 139.051L204.883 138.661L205.227 138.226Z" fill="#8C9DF4"/>
</g>
<path d="M225.176 120.845L225.153 121.234L223.271 169.905L263.648 171.463L265.852 114.589L234.702 113.374L234.335 113.352L233.922 113.672L225.59 120.501L225.176 120.845Z" fill="#8C9DF4"/>
<path d="M251.712 134.779L319.106 138.537C319.244 138.537 319.336 138.652 319.336 138.789L314.424 226.896C314.424 227.034 314.309 227.126 314.171 227.126L246.869 223.39C246.731 223.39 246.639 223.276 246.639 223.138L251.552 134.917C251.552 134.848 251.62 134.779 251.712 134.779Z" fill="#233862"/>
<path d="M251.851 220.606L308.938 224.181C310.66 224.295 312.129 222.989 312.244 221.271L317.11 143.819C317.225 142.1 315.917 140.634 314.195 140.519L257.107 136.944C255.386 136.83 253.917 138.136 253.802 139.855L248.936 217.306C248.844 219.025 250.152 220.514 251.851 220.606Z" fill="#EBF3FA"/>
<path d="M274.383 149.744L310.307 151.989C310.33 151.989 310.33 151.966 310.353 151.966L310.398 151.073C310.398 151.05 310.375 151.05 310.375 151.027L274.452 148.781C274.429 148.781 274.429 148.804 274.406 148.804L274.36 149.698C274.36 149.721 274.36 149.744 274.383 149.744Z" fill="#BDD1F9"/>
<path d="M273.899 157.437L309.822 159.683C309.845 159.683 309.845 159.66 309.868 159.66L309.914 158.766C309.914 158.743 309.891 158.743 309.891 158.72L273.967 156.475C273.945 156.475 273.945 156.498 273.922 156.498L273.876 157.391C273.853 157.414 273.876 157.437 273.899 157.437Z" fill="#BDD1F9"/>
<path d="M260.429 152.75L310.057 155.866C310.08 155.866 310.08 155.843 310.103 155.843L310.148 154.949C310.148 154.926 310.125 154.926 310.125 154.904L260.498 151.787C260.475 151.787 260.475 151.81 260.452 151.81L260.406 152.704C260.383 152.727 260.406 152.727 260.429 152.75Z" fill="#BDD1F9"/>
<path d="M282.586 181.923L307.033 183.459C307.056 183.459 307.056 183.459 307.056 183.436L307.102 182.519C307.102 182.496 307.102 182.496 307.079 182.496L282.655 180.961C282.632 180.961 282.632 180.961 282.632 180.984L282.586 181.9C282.563 181.9 282.563 181.923 282.586 181.923Z" fill="#BDD1F9"/>
<path d="M273.486 177.482L307.251 179.59C307.274 179.59 307.274 179.59 307.274 179.567L307.32 178.651C307.32 178.628 307.32 178.628 307.297 178.628L273.531 176.52C273.509 176.52 273.508 176.52 273.508 176.542L273.463 177.459C273.463 177.482 273.463 177.482 273.486 177.482Z" fill="#BDD1F9"/>
<path d="M270.977 185.49L306.9 187.735C306.923 187.735 306.923 187.712 306.946 187.712L306.992 186.819C306.992 186.796 306.969 186.796 306.969 186.773L271.046 184.527C271.023 184.527 271.023 184.55 271 184.55L270.954 185.444C270.954 185.467 270.954 185.49 270.977 185.49Z" fill="#BDD1F9"/>
<path d="M266.756 189.088L306.697 191.586C306.72 191.586 306.72 191.586 306.72 191.563L306.766 190.669C306.766 190.646 306.743 190.646 306.743 190.646L266.802 188.148C266.779 188.148 266.779 188.171 266.779 188.171L266.733 189.065C266.71 189.065 266.733 189.088 266.756 189.088Z" fill="#BDD1F9"/>
<path d="M280.316 196.712L306.025 198.316C306.048 198.316 306.048 198.316 306.048 198.294L306.094 197.377C306.094 197.354 306.094 197.354 306.071 197.354L280.362 195.75C280.339 195.75 280.339 195.75 280.339 195.773L280.293 196.689C280.293 196.689 280.293 196.712 280.316 196.712Z" fill="#BDD1F9"/>
<path d="M279.839 204.421L305.548 206.025C305.571 206.025 305.571 206.025 305.571 206.003L305.617 205.086C305.617 205.063 305.617 205.063 305.594 205.063L279.885 203.459C279.862 203.459 279.862 203.459 279.862 203.482L279.816 204.398C279.793 204.398 279.816 204.421 279.839 204.421Z" fill="#BDD1F9"/>
<path d="M270.241 199.951L305.775 202.173C305.798 202.173 305.798 202.173 305.798 202.151L305.844 201.234C305.844 201.211 305.844 201.211 305.821 201.211L270.287 198.988C270.264 198.988 270.264 198.988 270.264 199.011L270.219 199.928C270.219 199.951 270.241 199.951 270.241 199.951Z" fill="#BDD1F9"/>
<path d="M270.09 130.93L301.514 132.672C303.58 132.786 305.187 134.436 305.072 136.361L304.797 141.104C304.774 141.54 304.361 141.883 303.879 141.86L266.67 139.798C266.188 139.775 265.82 139.386 265.843 138.95L266.119 134.207C266.256 132.282 268.024 130.816 270.09 130.93Z" fill="#FF8C64"/>
<path d="M213.303 169.024C213.303 169.024 213.946 167.558 214.382 166.87C214.795 166.183 216.609 164.143 216.93 164.602C217.229 165.06 218.468 168.153 217.825 169.024C217.183 169.895 217.871 171.407 214.612 172.324L213.303 169.024Z" fill="#FFB27D"/>
<path d="M177.157 159.771C177.157 159.771 193.799 173.635 200.295 172.352C205.368 171.343 213.402 168.8 213.402 168.8C213.402 168.8 215.514 170.816 214.917 173.222C214.917 173.222 204.702 182.824 197.403 182.892C186.018 182.984 180.646 177.255 180.646 177.255L177.157 159.771Z" fill="#ED7D2B"/>
<path d="M147.973 306.084C147.973 306.084 148.455 313.875 149.97 313.967C150.177 313.99 157.614 313.99 157.614 313.99L167.117 313.944C167.117 313.944 167.048 311.652 164.271 311.171C161.493 310.69 156.834 308.742 155.158 305.076C153.39 301.203 147.973 306.084 147.973 306.084Z" fill="#113C68"/>
<path d="M147.398 306.628C147.398 306.628 150.29 307.591 152.539 307.591C155.064 307.591 157.337 306.903 157.337 306.903C157.337 306.903 157.888 301.656 160.872 290.084C162.433 284.011 164.682 276.22 167.873 266.528C176.687 239.74 179.373 224.067 179.625 222.577C179.648 222.508 179.648 222.463 179.648 222.463L179.625 222.44L152.516 210.547C152.516 210.547 155.868 247.462 151.598 261.647C151.001 263.617 150.496 265.932 150.037 268.429C147.329 283.828 147.398 306.628 147.398 306.628Z" fill="#2A4E96"/>
<path d="M160.895 290.068C162.456 283.996 164.705 276.205 167.896 266.512C176.71 239.725 179.396 224.051 179.648 222.561C179.648 222.516 179.648 222.47 179.648 222.424L152.539 210.531C152.539 210.531 155.891 247.447 151.621 261.631C151.001 263.625 160.895 290.068 160.895 290.068Z" fill="#233862"/>
<path d="M169.145 306.084C169.145 306.084 169.627 313.875 171.142 313.967C171.349 313.99 178.786 313.99 178.786 313.99L188.289 313.944C188.289 313.944 188.22 311.652 185.443 311.171C182.665 310.69 178.006 308.742 176.33 305.076C174.562 301.203 169.145 306.084 169.145 306.084Z" fill="#15447C"/>
<path d="M184.493 211.422C184.493 211.422 184.837 235.345 180.705 264.721C176.551 294.098 177.974 306.564 177.974 306.564C177.974 306.564 175.128 307.48 173.98 307.572C171.042 307.801 168.058 306.884 168.058 306.884C168.058 306.884 162.112 277.508 163.834 262.797C165.533 248.085 155.708 212.338 155.708 212.338L184.493 211.422Z" fill="#2A4E96"/>
<path d="M165.305 155.443L170.608 158.903L175.428 157.551C176.3 156.291 176.553 153.885 176.553 151.777C176.576 149.692 176.369 147.927 176.369 147.927L169.23 144.788L166.568 143.619C166.568 143.665 166.774 145.796 166.797 146.117C167.279 151.662 165.305 155.443 165.305 155.443Z" fill="#FFB27D"/>
<path d="M184.651 218.07C178.064 224.418 153.135 223.341 151.597 216.352C150.059 209.363 153.273 156.797 164.52 153.497C166.862 152.809 179.349 156.842 179.349 156.842C179.349 156.842 181.3 161.952 182.586 168.46C182.838 169.72 183.573 183.148 184.101 195.729C184.353 201.595 184.56 207.301 184.674 211.448C184.789 215.389 184.789 217.933 184.651 218.07Z" fill="#F99746"/>
<path d="M167.325 146.205C168.771 148.657 173.867 150.788 176.553 151.773C176.576 149.688 176.369 147.924 176.369 147.924L169.23 144.784C167.624 144.761 166.683 145.105 167.325 146.205Z" fill="#FCA56B"/>
<path d="M179.032 147.486C179.032 147.486 167.532 151.061 165.397 143.889C163.263 136.693 160.347 132.317 167.624 129.727C174.878 127.138 177.127 129.452 178.412 131.675C179.698 133.898 181.97 146.363 179.032 147.486Z" fill="#FFB27D"/>
<path d="M177.953 131.005C177.953 131.005 177.218 139.369 175.497 139.002C173.775 138.636 171.847 137.857 172.099 140.377C172.352 142.898 170.424 147.229 167.922 147.206C162.573 147.183 156.743 133.457 158.212 130.845C162.436 123.375 184.059 121.839 177.953 131.005Z" fill="#163560"/>
<path d="M176.276 153.711C176.138 153.642 167.714 149.884 166.727 150.205C165.74 150.526 164.523 153.528 164.523 153.528L179.352 156.873C179.329 156.873 178.181 154.49 176.276 153.711Z" fill="#ED7D2B"/>
<path d="M228.643 194.397L181.471 238.737C180.553 239.608 179.382 239.883 178.877 239.356L177.294 237.66C176.789 237.133 177.133 235.988 178.074 235.117L225.245 190.777C226.163 189.906 227.334 189.631 227.839 190.158L229.423 191.854C229.905 192.381 229.561 193.527 228.643 194.397Z" fill="#1F4D84"/>
<path d="M202.164 219.283L181.459 238.737C180.541 239.608 179.37 239.883 178.865 239.356L177.281 237.66C176.776 237.133 177.121 235.987 178.062 235.117L198.767 215.662L202.164 219.283Z" fill="#739AF0"/>
<path d="M226.226 141.579C240.228 126.73 263.619 126.019 278.493 139.997C278.7 140.181 278.883 140.364 279.067 140.547C293.39 154.571 293.895 177.509 280.077 192.174C266.075 207.023 242.684 207.733 227.81 193.755C222.943 189.172 219.592 183.604 217.779 177.646C214.06 165.41 216.815 151.569 226.226 141.579ZM229.83 191.647C238.484 199.782 250.282 202.509 261.048 199.965C267.314 198.476 273.236 195.222 277.988 190.181C290.888 176.501 290.223 154.984 276.519 142.129C271.469 137.385 265.363 134.498 259.028 133.398C248.124 131.519 236.532 134.956 228.384 143.595C215.46 157.252 216.126 178.769 229.83 191.647Z" fill="#1F4D84"/>
<g opacity="0.5">
<path d="M278.01 190.178C273.259 195.219 267.336 198.473 261.07 199.962C250.304 202.506 238.506 199.779 229.852 191.644C216.148 178.766 215.505 157.249 228.383 143.592C236.531 134.953 248.123 131.516 259.027 133.395C265.385 134.495 271.491 137.405 276.518 142.126C290.245 154.981 290.91 176.498 278.01 190.178Z" fill="#B3CFF9"/>
</g>
<path d="M184.664 211.472C158.657 192.98 160.837 168.301 160.837 168.301C170.341 173.64 179.775 185.487 184.09 195.73C184.343 201.619 184.549 207.325 184.664 211.472Z" fill="#ED7D2B"/>
<path d="M210.326 203.049C212.162 202.637 213.378 201.239 213.654 201.01C213.654 201.01 214.434 201.056 213.516 202.728C213.447 202.866 213.264 203.232 213.149 203.485C213.103 203.599 213.172 203.714 213.287 203.714C214.343 203.805 215.398 203.37 217.441 203.805C217.717 203.874 217.809 204.539 217.786 204.814C217.763 205.295 217.809 205.845 217.235 206.578C216.913 207.013 215.995 207.472 213.952 208.297C213.172 208.617 210.945 208.365 208.879 207.655L207.204 206.876L207.709 203.782L208.122 203.874C208.811 204.012 209.637 203.21 210.326 203.049Z" fill="#FFB27D"/>
<path d="M168.894 156.855C168.894 156.855 145.526 161.301 175.757 195.054C180.601 200.462 206.723 207.497 206.723 207.497C206.723 207.497 209.362 205.251 208.031 203.418C208.031 203.418 190.035 190.38 186.087 188.317C184.296 187.378 179.177 167.511 176.285 162.722C173.393 157.932 168.894 156.855 168.894 156.855Z" fill="#F99746"/>
<path d="M213.939 169.442C213.939 169.442 214.697 167.976 214.857 167.22C215.018 166.441 215.959 164.218 216.372 163.805C216.533 163.645 217.061 163.851 217.107 164.539C217.13 164.837 216.992 165.364 216.74 166.005C216.326 167.059 216.395 168.457 216.235 168.938C215.867 170.13 213.939 169.442 213.939 169.442Z" fill="#FFB27D"/>
</svg>
